<?xml version="1.0" encoding="UTF-8" standalone="no"?>
<!DOCTYPE svg PUBLIC "-//W3C//DTD SVG 1.1//EN"
 "http://www.w3.org/Graphics/SVG/1.1/DTD/svg11.dtd">
<!-- Generated by graphviz version 2.40.1 (20161225.0304)
 -->
<!-- Title: %3 Pages: 1 -->
<svg width="572pt" height="355pt"
 viewBox="0.00 0.00 572.00 354.50" xmlns="http://www.w3.org/2000/svg" xmlns:xlink="http://www.w3.org/1999/xlink">
<g id="graph0" class="graph" transform="scale(1 1) rotate(0) translate(4 350.5)">
<title>%3</title>
<polygon fill="#ffffff" stroke="transparent" points="-4,4 -4,-350.5 568,-350.5 568,4 -4,4"/>
<text text-anchor="middle" x="282" y="-331.3" font-family="Times,serif" font-size="14.00" fill="#000000">Device Data Attributes</text>
<!-- flex -->
<g id="node1" class="node">
<title>flex</title>
<polygon fill="none" stroke="#000000" points="54,-171 0,-171 0,-135 54,-135 54,-171"/>
<text text-anchor="middle" x="27" y="-149.3" font-family="Times,serif" font-size="14.00" fill="#000000">19_0</text>
</g>
<!-- title -->
<g id="node2" class="node">
<title>title</title>
<polygon fill="none" stroke="transparent" points="210,-323.5 90,-323.5 90,-270.5 210,-270.5 210,-323.5"/>
<polyline fill="none" stroke="#000000" points="90,-270.5 210,-270.5 "/>
<text text-anchor="middle" x="150" y="-308.3" font-family="Times,serif" font-size="14.00" fill="#000000">Flex Container</text>
<text text-anchor="middle" x="150" y="-293.3" font-family="Times,serif" font-size="14.00" fill="#000000">Custom Attributes</text>
<text text-anchor="middle" x="150" y="-278.3" font-family="Times,serif" font-size="14.00" fill="#000000">(Meta Data)</text>
</g>
<!-- flex&#45;&gt;title -->
<!-- priority -->
<g id="node3" class="node">
<title>priority</title>
<ellipse fill="none" stroke="#000000" cx="150" cy="-234" rx="27" ry="18"/>
<text text-anchor="middle" x="150" y="-230.3" font-family="Times,serif" font-size="14.00" fill="#000000">1</text>
</g>
<!-- flex&#45;&gt;priority -->
<g id="edge2" class="edge">
<title>flex&#45;&gt;priority</title>
<path fill="none" stroke="#000000" d="M45.1839,-171.0529C57.2069,-182.3423 73.7042,-196.6526 90,-207 98.3563,-212.306 107.9303,-217.1136 116.9402,-221.1522"/>
<polygon fill="#000000" stroke="#000000" points="115.8415,-224.4894 126.4111,-225.2199 118.604,-218.0575 115.8415,-224.4894"/>
</g>
<!-- time -->
<g id="node4" class="node">
<title>time</title>
<ellipse fill="none" stroke="#000000" cx="150" cy="-180" rx="27" ry="18"/>
<text text-anchor="middle" x="150" y="-176.3" font-family="Times,serif" font-size="14.00" fill="#000000">2</text>
</g>
<!-- flex&#45;&gt;time -->
<g id="edge3" class="edge">
<title>flex&#45;&gt;time</title>
<path fill="none" stroke="#000000" d="M54.2977,-158.9922C71.9356,-162.8639 95.0767,-167.9437 114.1851,-172.1382"/>
<polygon fill="#000000" stroke="#000000" points="113.5238,-175.5763 124.0417,-174.3018 115.0247,-168.7391 113.5238,-175.5763"/>
</g>
<!-- descr -->
<g id="node5" class="node">
<title>descr</title>
<ellipse fill="none" stroke="#000000" cx="150" cy="-126" rx="27" ry="18"/>
<text text-anchor="middle" x="150" y="-122.3" font-family="Times,serif" font-size="14.00" fill="#000000">3</text>
</g>
<!-- flex&#45;&gt;descr -->
<g id="edge4" class="edge">
<title>flex&#45;&gt;descr</title>
<path fill="none" stroke="#000000" d="M54.2977,-147.0078C71.9356,-143.1361 95.0767,-138.0563 114.1851,-133.8618"/>
<polygon fill="#000000" stroke="#000000" points="115.0247,-137.2609 124.0417,-131.6982 113.5238,-130.4237 115.0247,-137.2609"/>
</g>
<!-- format -->
<g id="node6" class="node">
<title>format</title>
<ellipse fill="none" stroke="#000000" cx="150" cy="-72" rx="27" ry="18"/>
<text text-anchor="middle" x="150" y="-68.3" font-family="Times,serif" font-size="14.00" fill="#000000">4</text>
</g>
<!-- flex&#45;&gt;format -->
<g id="edge5" class="edge">
<title>flex&#45;&gt;format</title>
<path fill="none" stroke="#000000" d="M45.1839,-134.9471C57.2069,-123.6577 73.7042,-109.3474 90,-99 98.3563,-93.694 107.9303,-88.8864 116.9402,-84.8478"/>
<polygon fill="#000000" stroke="#000000" points="118.604,-87.9425 126.4111,-80.7801 115.8415,-81.5106 118.604,-87.9425"/>
</g>
<!-- app -->
<g id="node7" class="node">
<title>app</title>
<ellipse fill="none" stroke="#000000" cx="150" cy="-18" rx="27" ry="18"/>
<text text-anchor="middle" x="150" y="-14.3" font-family="Times,serif" font-size="14.00" fill="#000000">5</text>
</g>
<!-- flex&#45;&gt;app -->
<g id="edge6" class="edge">
<title>flex&#45;&gt;app</title>
<path fill="none" stroke="#000000" d="M33.6091,-134.6331C42.91,-111.0794 61.925,-70.2661 90,-45 97.436,-38.308 106.8063,-33.0348 115.9171,-28.9928"/>
<polygon fill="#000000" stroke="#000000" points="117.2737,-32.2196 125.2257,-25.2184 114.6434,-25.7325 117.2737,-32.2196"/>
</g>
<!-- priorityNote -->
<g id="node8" class="node">
<title>priorityNote</title>
<text text-anchor="middle" x="405" y="-232.3" font-family="Times,serif" font-size="14.00" fill="#000000">Data Priority: Optional: Integer</text>
</g>
<!-- priority&#45;&gt;priorityNote -->
<!-- timeNote -->
<g id="node9" class="node">
<title>timeNote</title>
<text text-anchor="start" x="302.5" y="-184.8" font-family="Times,serif" font-size="14.00" fill="#000000">Data Creation Time: Optional: Time</text>
<text text-anchor="middle" x="405" y="-169.8" font-family="Times,serif" font-size="14.00" fill="#000000">Presence indicates Time Series</text>
</g>
<!-- time&#45;&gt;timeNote -->
<!-- descrNote -->
<g id="node10" class="node">
<title>descrNote</title>
<text text-anchor="middle" x="405" y="-122.3" font-family="Times,serif" font-size="14.00" fill="#000000">Data Description: Optional: String</text>
</g>
<!-- descr&#45;&gt;descrNote -->
<!-- formatNote -->
<g id="node11" class="node">
<title>formatNote</title>
<text text-anchor="middle" x="405" y="-68.3" font-family="Times,serif" font-size="14.00" fill="#000000">Data Format: Optional: String</text>
</g>
<!-- format&#45;&gt;formatNote -->
<!-- appNote -->
<g id="node12" class="node">
<title>appNote</title>
<text text-anchor="middle" x="405" y="-14.3" font-family="Times,serif" font-size="14.00" fill="#000000">App ID: Optional: Integer: Destination application ID</text>
</g>
<!-- app&#45;&gt;appNote -->
</g>
</svg>
