<?xml version="1.0" encoding="UTF-8" standalone="no"?>
<!DOCTYPE svg PUBLIC "-//W3C//DTD SVG 1.1//EN"
 "http://www.w3.org/Graphics/SVG/1.1/DTD/svg11.dtd">
<!-- Generated by graphviz version 2.40.1 (20161225.0304)
 -->
<!-- Title: %3 Pages: 1 -->
<svg width="1129pt" height="553pt"
 viewBox="0.00 0.00 1129.00 553.00" xmlns="http://www.w3.org/2000/svg" xmlns:xlink="http://www.w3.org/1999/xlink">
<g id="graph0" class="graph" transform="scale(1 1) rotate(0) translate(4 549)">
<title>%3</title>
<polygon fill="#ffffff" stroke="transparent" points="-4,4 -4,-549 1125,-549 1125,4 -4,4"/>
<text text-anchor="middle" x="560.5" y="-529.8" font-family="Times,serif" font-size="14.00" fill="#000000">Sample Device Data Resource Tree</text>
<!-- title1 -->
<g id="node1" class="node">
<title>title1</title>
<polygon fill="none" stroke="transparent" points="86,-36 32,-36 32,0 86,0 86,-36"/>
<polyline fill="none" stroke="#000000" points="32,0 86,0 "/>
<text text-anchor="middle" x="59" y="-14.3" font-family="Times,serif" font-size="14.00" fill="#000000">CSE</text>
</g>
<!-- title2 -->
<g id="node2" class="node">
<title>title2</title>
<polygon fill="none" stroke="transparent" points="289,-36 154,-36 154,0 289,0 289,-36"/>
<polyline fill="none" stroke="#000000" points="154,0 289,0 "/>
<text text-anchor="middle" x="221.5" y="-14.3" font-family="Times,serif" font-size="14.00" fill="#000000">The Car is the device</text>
</g>
<!-- title1&#45;&gt;title2 -->
<!-- title3 -->
<g id="node3" class="node">
<title>title3</title>
<polygon fill="none" stroke="transparent" points="544,-36 325,-36 325,0 544,0 544,-36"/>
<polyline fill="none" stroke="#000000" points="325,0 544,0 "/>
<text text-anchor="middle" x="434.5" y="-14.3" font-family="Times,serif" font-size="14.00" fill="#000000">Two temperature modules in the car</text>
</g>
<!-- title2&#45;&gt;title3 -->
<!-- title4 -->
<g id="node4" class="node">
<title>title4</title>
<polygon fill="none" stroke="transparent" points="804,-36 580,-36 580,0 804,0 804,-36"/>
<polyline fill="none" stroke="#000000" points="580,0 804,0 "/>
<text text-anchor="middle" x="692" y="-14.3" font-family="Times,serif" font-size="14.00" fill="#000000">Two temperature sensors per module</text>
</g>
<!-- title3&#45;&gt;title4 -->
<!-- title5 -->
<g id="node5" class="node">
<title>title5</title>
<polygon fill="none" stroke="transparent" points="1121,-36 840,-36 840,0 1121,0 1121,-36"/>
<polyline fill="none" stroke="#000000" points="840,0 1121,0 "/>
<text text-anchor="middle" x="980.5" y="-14.3" font-family="Times,serif" font-size="14.00" fill="#000000">Historical temperature readings for each sensor</text>
</g>
<!-- title4&#45;&gt;title5 -->
<!-- cse -->
<g id="node6" class="node">
<title>cse</title>
<polygon fill="none" stroke="#000000" points="118,-414 0,-414 0,-378 118,-378 118,-414"/>
<text text-anchor="middle" x="59" y="-392.3" font-family="Times,serif" font-size="14.00" fill="#000000">Chordant&#45;IN&#45;CSE</text>
</g>
<!-- deviceNode -->
<g id="node7" class="node">
<title>deviceNode</title>
<polygon fill="none" stroke="#000000" points="266.5,-441 176.5,-441 176.5,-405 266.5,-405 266.5,-441"/>
<text text-anchor="middle" x="221.5" y="-419.3" font-family="Times,serif" font-size="14.00" fill="#000000">&#39;myCarNode&#39;</text>
</g>
<!-- cse&#45;&gt;deviceNode -->
<g id="edge6" class="edge">
<title>cse&#45;&gt;deviceNode</title>
<path fill="none" stroke="#000000" d="M118.1259,-405.824C133.9075,-408.4462 150.8945,-411.2686 166.4474,-413.8528"/>
<polygon fill="#000000" stroke="#000000" points="165.9952,-417.3256 176.4336,-415.5121 167.1426,-410.4202 165.9952,-417.3256"/>
</g>
<!-- deviceAE -->
<g id="node8" class="node">
<title>deviceAE</title>
<polygon fill="none" stroke="#000000" points="260.5,-387 182.5,-387 182.5,-351 260.5,-351 260.5,-387"/>
<text text-anchor="middle" x="221.5" y="-365.3" font-family="Times,serif" font-size="14.00" fill="#000000">&#39;myCarAE&#39;</text>
</g>
<!-- cse&#45;&gt;deviceAE -->
<g id="edge5" class="edge">
<title>cse&#45;&gt;deviceAE</title>
<path fill="none" stroke="#000000" d="M118.1259,-386.176C135.8614,-383.2292 155.1193,-380.0294 172.1532,-377.1992"/>
<polygon fill="#000000" stroke="#000000" points="173.1472,-380.5821 182.4383,-375.4903 171.9998,-373.6767 173.1472,-380.5821"/>
</g>
<!-- objectTitle -->
<g id="node9" class="node">
<title>objectTitle</title>
<text text-anchor="middle" x="434.5" y="-443.3" font-family="Times,serif" font-size="14.00" fill="#000000">Flex Containers</text>
<text text-anchor="middle" x="434.5" y="-428.3" font-family="Times,serif" font-size="14.00" fill="#000000">Object ID_Object Instance #</text>
<text text-anchor="middle" x="434.5" y="-413.3" font-family="Times,serif" font-size="14.00" fill="#000000">(non&#45;Data resources)</text>
</g>
<!-- deviceAE&#45;&gt;objectTitle -->
<!-- 19_0 -->
<g id="node12" class="node">
<title>19_0</title>
<polygon fill="none" stroke="#000000" points="461.5,-387 407.5,-387 407.5,-351 461.5,-351 461.5,-387"/>
<text text-anchor="middle" x="434.5" y="-365.3" font-family="Times,serif" font-size="14.00" fill="#000000">19_0</text>
</g>
<!-- deviceAE&#45;&gt;19_0 -->
<g id="edge13" class="edge">
<title>deviceAE&#45;&gt;19_0</title>
<path fill="none" stroke="#000000" d="M260.5675,-369C299.5391,-369 358.9756,-369 397.2832,-369"/>
<polygon fill="#000000" stroke="#000000" points="397.4931,-372.5001 407.493,-369 397.493,-365.5001 397.4931,-372.5001"/>
</g>
<!-- 19_1 -->
<g id="node13" class="node">
<title>19_1</title>
<polygon fill="none" stroke="#000000" points="461.5,-225 407.5,-225 407.5,-189 461.5,-189 461.5,-225"/>
<text text-anchor="middle" x="434.5" y="-203.3" font-family="Times,serif" font-size="14.00" fill="#000000">19_1</text>
</g>
<!-- deviceAE&#45;&gt;19_1 -->
<g id="edge14" class="edge">
<title>deviceAE&#45;&gt;19_1</title>
<path fill="none" stroke="#000000" d="M245.5198,-350.7314C283.9733,-321.4851 359.391,-264.1251 402.4156,-231.4022"/>
<polygon fill="#000000" stroke="#000000" points="404.7273,-234.0413 410.568,-225.2018 400.4897,-228.4697 404.7273,-234.0413"/>
</g>
<!-- resourceTitle -->
<g id="node10" class="node">
<title>resourceTitle</title>
<text text-anchor="middle" x="692" y="-470.3" font-family="Times,serif" font-size="14.00" fill="#000000">Regular Containers (or Time Series)</text>
<text text-anchor="middle" x="692" y="-455.3" font-family="Times,serif" font-size="14.00" fill="#000000">Resource Instance #</text>
<text text-anchor="middle" x="692" y="-440.3" font-family="Times,serif" font-size="14.00" fill="#000000">(of Data resource)</text>
</g>
<!-- dataTitle -->
<g id="node11" class="node">
<title>dataTitle</title>
<text text-anchor="middle" x="980.5" y="-500.3" font-family="Times,serif" font-size="14.00" fill="#000000">Content Instances (or Time Series Instances)</text>
</g>
<!-- 19_0&#45;&gt;resourceTitle -->
<!-- 19_0_0 -->
<g id="node14" class="node">
<title>19_0_0</title>
<polygon fill="none" stroke="#000000" points="719,-414 665,-414 665,-378 719,-378 719,-414"/>
<text text-anchor="middle" x="692" y="-392.3" font-family="Times,serif" font-size="14.00" fill="#000000">0</text>
</g>
<!-- 19_0&#45;&gt;19_0_0 -->
<g id="edge7" class="edge">
<title>19_0&#45;&gt;19_0_0</title>
<path fill="none" stroke="#000000" d="M461.5703,-371.8384C507.8378,-376.6898 602.2029,-386.5844 654.6848,-392.0873"/>
<polygon fill="#000000" stroke="#000000" points="654.5955,-395.5971 664.906,-393.1591 655.3255,-388.6352 654.5955,-395.5971"/>
</g>
<!-- 19_0_1 -->
<g id="node15" class="node">
<title>19_0_1</title>
<polygon fill="none" stroke="#000000" points="719,-360 665,-360 665,-324 719,-324 719,-360"/>
<text text-anchor="middle" x="692" y="-338.3" font-family="Times,serif" font-size="14.00" fill="#000000">1</text>
</g>
<!-- 19_0&#45;&gt;19_0_1 -->
<g id="edge8" class="edge">
<title>19_0&#45;&gt;19_0_1</title>
<path fill="none" stroke="#000000" d="M461.5703,-366.1616C507.8378,-361.3102 602.2029,-351.4156 654.6848,-345.9127"/>
<polygon fill="#000000" stroke="#000000" points="655.3255,-349.3648 664.906,-344.8409 654.5955,-342.4029 655.3255,-349.3648"/>
</g>
<!-- 19_1_0 -->
<g id="node16" class="node">
<title>19_1_0</title>
<polygon fill="none" stroke="#000000" points="719,-225 665,-225 665,-189 719,-189 719,-225"/>
<text text-anchor="middle" x="692" y="-203.3" font-family="Times,serif" font-size="14.00" fill="#000000">0</text>
</g>
<!-- 19_1&#45;&gt;19_1_0 -->
<g id="edge9" class="edge">
<title>19_1&#45;&gt;19_1_0</title>
<path fill="none" stroke="#000000" d="M461.5703,-207C507.8378,-207 602.2029,-207 654.6848,-207"/>
<polygon fill="#000000" stroke="#000000" points="654.906,-210.5001 664.906,-207 654.906,-203.5001 654.906,-210.5001"/>
</g>
<!-- 19_1_1 -->
<g id="node17" class="node">
<title>19_1_1</title>
<polygon fill="none" stroke="#000000" points="719,-144 665,-144 665,-108 719,-108 719,-144"/>
<text text-anchor="middle" x="692" y="-122.3" font-family="Times,serif" font-size="14.00" fill="#000000">1</text>
</g>
<!-- 19_1&#45;&gt;19_1_1 -->
<g id="edge10" class="edge">
<title>19_1&#45;&gt;19_1_1</title>
<path fill="none" stroke="#000000" d="M461.5703,-198.4847C508.031,-183.8699 602.9918,-153.9987 655.34,-137.5319"/>
<polygon fill="#000000" stroke="#000000" points="656.4171,-140.8622 664.906,-134.5228 654.3165,-134.1848 656.4171,-140.8622"/>
</g>
<!-- 19_0_0&#45;&gt;dataTitle -->
<!-- 19_0_0_0 -->
<g id="node18" class="node">
<title>19_0_0_0</title>
<polygon fill="none" stroke="#000000" points="1057.5,-468 903.5,-468 903.5,-432 1057.5,-432 1057.5,-468"/>
<text text-anchor="middle" x="980.5" y="-446.3" font-family="Times,serif" font-size="14.00" fill="#000000"> &lt;auto&#45;generated&#45;name&gt;</text>
</g>
<!-- 19_0_0&#45;&gt;19_0_0_0 -->
<g id="edge16" class="edge">
<title>19_0_0&#45;&gt;19_0_0_0</title>
<path fill="none" stroke="#000000" d="M719.1414,-401.0802C758.5895,-408.4639 833.5552,-422.4956 893.1188,-433.6444"/>
<polygon fill="#000000" stroke="#000000" points="892.8185,-437.1489 903.2917,-435.5485 894.1064,-430.2684 892.8185,-437.1489"/>
</g>
<!-- 19_0_0_1 -->
<g id="node19" class="node">
<title>19_0_0_1</title>
<polygon fill="none" stroke="#000000" points="1057.5,-414 903.5,-414 903.5,-378 1057.5,-378 1057.5,-414"/>
<text text-anchor="middle" x="980.5" y="-392.3" font-family="Times,serif" font-size="14.00" fill="#000000"> &lt;auto&#45;generated&#45;name&gt;</text>
</g>
<!-- 19_0_0&#45;&gt;19_0_0_1 -->
<g id="edge17" class="edge">
<title>19_0_0&#45;&gt;19_0_0_1</title>
<path fill="none" stroke="#000000" d="M719.1414,-396C758.5895,-396 833.5552,-396 893.1188,-396"/>
<polygon fill="#000000" stroke="#000000" points="893.2918,-399.5001 903.2917,-396 893.2917,-392.5001 893.2918,-399.5001"/>
</g>
<!-- 19_0_1_0 -->
<g id="node20" class="node">
<title>19_0_1_0</title>
<polygon fill="none" stroke="#000000" points="1057.5,-360 903.5,-360 903.5,-324 1057.5,-324 1057.5,-360"/>
<text text-anchor="middle" x="980.5" y="-338.3" font-family="Times,serif" font-size="14.00" fill="#000000"> &lt;auto&#45;generated&#45;name&gt;</text>
</g>
<!-- 19_0_1&#45;&gt;19_0_1_0 -->
<g id="edge18" class="edge">
<title>19_0_1&#45;&gt;19_0_1_0</title>
<path fill="none" stroke="#000000" d="M719.1414,-342C758.5895,-342 833.5552,-342 893.1188,-342"/>
<polygon fill="#000000" stroke="#000000" points="893.2918,-345.5001 903.2917,-342 893.2917,-338.5001 893.2918,-345.5001"/>
</g>
<!-- 19_0_1_1 -->
<g id="node21" class="node">
<title>19_0_1_1</title>
<polygon fill="none" stroke="#000000" points="1057.5,-306 903.5,-306 903.5,-270 1057.5,-270 1057.5,-306"/>
<text text-anchor="middle" x="980.5" y="-284.3" font-family="Times,serif" font-size="14.00" fill="#000000"> &lt;auto&#45;generated&#45;name&gt;</text>
</g>
<!-- 19_0_1&#45;&gt;19_0_1_1 -->
<g id="edge19" class="edge">
<title>19_0_1&#45;&gt;19_0_1_1</title>
<path fill="none" stroke="#000000" d="M719.1414,-336.9198C758.5895,-329.5361 833.5552,-315.5044 893.1188,-304.3556"/>
<polygon fill="#000000" stroke="#000000" points="894.1064,-307.7316 903.2917,-302.4515 892.8185,-300.8511 894.1064,-307.7316"/>
</g>
<!-- 19_1_0_0 -->
<g id="node22" class="node">
<title>19_1_0_0</title>
<polygon fill="none" stroke="#000000" points="1057.5,-252 903.5,-252 903.5,-216 1057.5,-216 1057.5,-252"/>
<text text-anchor="middle" x="980.5" y="-230.3" font-family="Times,serif" font-size="14.00" fill="#000000"> &lt;auto&#45;generated&#45;name&gt;</text>
</g>
<!-- 19_1_0&#45;&gt;19_1_0_0 -->
<g id="edge20" class="edge">
<title>19_1_0&#45;&gt;19_1_0_0</title>
<path fill="none" stroke="#000000" d="M719.1414,-209.5401C758.5895,-213.2319 833.5552,-220.2478 893.1188,-225.8222"/>
<polygon fill="#000000" stroke="#000000" points="893.0091,-229.3271 903.2917,-226.7743 893.6614,-222.3576 893.0091,-229.3271"/>
</g>
<!-- 19_1_0_1 -->
<g id="node23" class="node">
<title>19_1_0_1</title>
<polygon fill="none" stroke="#000000" points="1057.5,-198 903.5,-198 903.5,-162 1057.5,-162 1057.5,-198"/>
<text text-anchor="middle" x="980.5" y="-176.3" font-family="Times,serif" font-size="14.00" fill="#000000"> &lt;auto&#45;generated&#45;name&gt;</text>
</g>
<!-- 19_1_0&#45;&gt;19_1_0_1 -->
<g id="edge21" class="edge">
<title>19_1_0&#45;&gt;19_1_0_1</title>
<path fill="none" stroke="#000000" d="M719.1414,-204.4599C758.5895,-200.7681 833.5552,-193.7522 893.1188,-188.1778"/>
<polygon fill="#000000" stroke="#000000" points="893.6614,-191.6424 903.2917,-187.2257 893.0091,-184.6729 893.6614,-191.6424"/>
</g>
<!-- 19_1_1_0 -->
<g id="node24" class="node">
<title>19_1_1_0</title>
<polygon fill="none" stroke="#000000" points="1057.5,-144 903.5,-144 903.5,-108 1057.5,-108 1057.5,-144"/>
<text text-anchor="middle" x="980.5" y="-122.3" font-family="Times,serif" font-size="14.00" fill="#000000"> &lt;auto&#45;generated&#45;name&gt;</text>
</g>
<!-- 19_1_1&#45;&gt;19_1_1_0 -->
<g id="edge22" class="edge">
<title>19_1_1&#45;&gt;19_1_1_0</title>
<path fill="none" stroke="#000000" d="M719.1414,-126C758.5895,-126 833.5552,-126 893.1188,-126"/>
<polygon fill="#000000" stroke="#000000" points="893.2918,-129.5001 903.2917,-126 893.2917,-122.5001 893.2918,-129.5001"/>
</g>
<!-- 19_1_1_1 -->
<g id="node25" class="node">
<title>19_1_1_1</title>
<polygon fill="none" stroke="#000000" points="1057.5,-90 903.5,-90 903.5,-54 1057.5,-54 1057.5,-90"/>
<text text-anchor="middle" x="980.5" y="-68.3" font-family="Times,serif" font-size="14.00" fill="#000000"> &lt;auto&#45;generated&#45;name&gt;</text>
</g>
<!-- 19_1_1&#45;&gt;19_1_1_1 -->
<g id="edge23" class="edge">
<title>19_1_1&#45;&gt;19_1_1_1</title>
<path fill="none" stroke="#000000" d="M719.1414,-120.9198C758.5895,-113.5361 833.5552,-99.5044 893.1188,-88.3556"/>
<polygon fill="#000000" stroke="#000000" points="894.1064,-91.7316 903.2917,-86.4515 892.8185,-84.8511 894.1064,-91.7316"/>
</g>
</g>
</svg>
